<?xml version="1.0" encoding="UTF-8" standalone="no"?>
<!-- Created with Inkscape (http://www.inkscape.org/) -->

<svg
   width="196.32083mm"
   height="126.62767mm"
   viewBox="0 0 196.32083 126.62767"
   version="1.1"
   id="svg1"
   xml:space="preserve"
   inkscape:version="1.4 (e7c3feb1, 2024-10-09)"
   xmlns:inkscape="http://www.inkscape.org/namespaces/inkscape"
   xmlns:sodipodi="http://sodipodi.sourceforge.net/DTD/sodipodi-0.dtd"
   xmlns="http://www.w3.org/2000/svg"
   xmlns:svg="http://www.w3.org/2000/svg"><sodipodi:namedview
     id="namedview1"
     pagecolor="#ffffff"
     bordercolor="#000000"
     borderopacity="0.25"
     inkscape:showpageshadow="2"
     inkscape:pageopacity="0.0"
     inkscape:pagecheckerboard="0"
     inkscape:deskcolor="#d1d1d1"
     inkscape:document-units="mm"
     inkscape:zoom="0.89887065"
     inkscape:cx="371.57738"
     inkscape:cy="239.18903"
     inkscape:window-width="1728"
     inkscape:window-height="1387"
     inkscape:window-x="0"
     inkscape:window-y="25"
     inkscape:window-maximized="0"
     inkscape:current-layer="layer1" /><defs
     id="defs1" /><g
     inkscape:label="Layer 1"
     inkscape:groupmode="layer"
     id="layer1"
     transform="translate(-6.8791697,-85.117419)"><path
       style="fill:#101d40;fill-opacity:1"
       d="m 119.59167,211.65096 c -0.3638,-0.0575 -2.03068,-0.33516 -3.70417,-0.61699 -1.67349,-0.28183 -3.69755,-0.54156 -4.49792,-0.57717 -1.8212,-0.081 -6.30506,0.23101 -10.44313,0.72677 -6.270263,0.75121 -10.442373,0.3862 -13.858623,-1.21246 -4.136759,-1.93582 -6.511841,-4.69263 -11.702871,-13.5838 -0.49761,-0.8523 -1.525402,-2.11942 -2.283981,-2.8158 l -1.379234,-1.26616 0.401906,-2.74045 c 0.221048,-1.50725 1.462605,-8.03873 2.759016,-14.51441 3.171483,-15.84181 3.698588,-19.16623 3.698588,-23.32676 0,-4.93844 -1.14335,-12.60732 -3.079774,-20.6572 l -0.683473,-2.84125 -0.698064,0.50784 c -0.9436,0.68646 -6.704036,6.58647 -8.652032,8.86166 -0.864067,1.0092 -2.166344,2.69734 -2.893948,3.75142 -2.196983,3.18278 -5.902767,7.48879 -8.853422,10.28743 -1.533534,1.45453 -6.002932,5.82587 -9.931994,9.7141 -3.929063,3.88822 -7.500938,7.33625 -7.9375,7.66227 -0.436563,0.32602 -1.508125,1.20609 -2.38125,1.9557 -0.873125,0.74961 -3.313906,2.70988 -5.423958,4.35615 -2.110052,1.64628 -5.483987,4.55065 -7.497633,6.45417 -2.013645,1.90351 -3.918645,3.6085 -4.233333,3.78885 -0.82939,0.47534 -2.479177,0.13749 -3.735112,-0.76491 -3.6454863,-2.61929 -4.4676963,-3.29544 -5.0507843,-4.15353 -0.357392,-0.52595 -0.649804,-1.09541 -0.649804,-1.26547 0,-0.36005 1.199358,-1.79313 4.9705863,-5.93922 2.836848,-3.11883 3.995657,-4.9556 5.399165,-8.55792 0.751352,-1.92847 1.075622,-2.36412 4.037247,-5.42396 4.01285,-4.14593 9.79201,-10.37929 13.155355,-14.18928 1.476086,-1.6721 3.158812,-3.27863 3.975909,-3.79588 0.790596,-0.50047 1.804039,-1.45866 2.293184,-2.16815 0.642318,-0.93166 1.412779,-1.57531 2.883659,-2.40901 1.771362,-1.00402 2.05029,-1.26794 2.374347,-2.2466 0.21125,-0.63798 0.803595,-1.50319 1.394771,-2.03728 3.323175,-3.00229 8.778069,-9.73937 9.535874,-11.7773 0.90093,-2.42283 1.130045,-2.77201 10.525904,-16.04174 1.980451,-2.79699 4.098739,-4.51066 5.878199,-4.7554 0.756399,-0.104028 2.10453,-0.528518 2.995847,-0.943318 2.141521,-0.99661 4.43944,-1.57138 5.557167,-1.39 0.727064,0.11799 1.362671,-0.0899 3.246243,-1.06161 1.28819,-0.664582 3.23513,-1.615906 4.32654,-2.114053 1.09141,-0.498148 2.26884,-1.178702 2.61651,-1.512343 0.97124,-0.932044 2.14599,-3.753321 2.14599,-5.153823 0,-1.444938 0.76743,-2.379136 2.17067,-2.642387 0.49879,-0.09357 4.658993,-0.131228 9.244903,-0.08368 l 8.33803,0.08645 0.97111,0.741069 c 0.75235,0.574124 0.97412,0.931749 0.98443,1.5875 0.007,0.465537 0.39586,1.853794 0.86343,3.085015 0.97285,2.561715 1.60966,3.145253 4.8118,4.409264 1.01865,0.402099 2.17086,0.948012 2.56047,1.213137 1.43602,0.9772 3.00723,1.52015 4.41575,1.52591 1.08424,0.004 2.10072,0.29315 4.2991,1.22108 1.58352,0.6684 2.94585,1.323239 3.02741,1.455209 0.0816,0.13197 0.77041,0.23994 1.53078,0.23994 1.32079,0 1.44244,0.062 2.72584,1.38906 0.73884,0.76399 2.33708,2.75828 3.55164,4.43177 1.21457,1.67349 3.45697,4.59052 4.98311,6.48229 1.52615,1.89177 3.36211,4.43596 4.07992,5.65374 0.71781,1.21779 2.53135,3.85601 4.0301,5.86273 1.49876,2.00671 3.22864,4.49292 3.84419,5.52491 0.65194,1.09299 1.29817,1.87633 1.54792,1.87633 0.77484,0 1.5849,0.79554 1.86347,1.83006 0.30851,1.14572 2.01203,2.93411 4.10697,4.31156 1.39687,0.91846 3.08416,2.56298 5.10019,4.97088 0.67011,0.80037 1.95025,2.22912 2.84476,3.175 0.8945,0.94589 1.97313,2.15029 2.39696,2.67644 0.42382,0.52616 3.4304,3.72377 6.68128,7.10581 3.25088,3.38204 6.25311,6.68909 6.67161,7.34901 0.41851,0.65991 1.01716,1.96985 1.33035,2.91097 0.75228,2.2606 2.38377,4.59323 5.69042,8.1359 3.43924,3.68472 4.34172,4.83076 4.34172,5.5135 0,0.77627 -2.74654,3.33458 -4.54108,4.22985 -0.82411,0.41114 -1.70576,0.97669 -1.95924,1.25677 -0.33085,0.36559 -0.81316,0.50925 -1.70966,0.50925 -1.24073,0 -1.27682,-0.0257 -5.58139,-3.97048 -4.76364,-4.36552 -11.93908,-10.63184 -15.07432,-13.16444 -1.10577,-0.89322 -3.70455,-3.20756 -5.77507,-5.14299 -2.07052,-1.93543 -5.21393,-4.80691 -6.98535,-6.38107 -5.50832,-4.89492 -7.49455,-7.01936 -10.68211,-11.42539 -1.68445,-2.32834 -3.37364,-4.61154 -3.75376,-5.0738 -2.87981,-3.50199 -5.613,-6.36548 -8.21694,-8.60866 -2.56199,-2.20704 -3.07483,-2.54844 -3.22096,-2.14419 -0.19162,0.53012 -2.12258,8.92709 -2.72738,11.86024 -0.73622,3.57053 -1.25185,8.49396 -1.2467,11.90391 0.006,4.17352 0.38146,6.59897 3.33541,21.56354 1.22083,6.18463 2.39201,12.61343 2.60264,14.28622 l 0.38295,3.04142 -1.22404,1.34156 c -1.57805,1.72956 -2.42175,3.31079 -4.00504,7.50605 -1.59186,4.21802 -2.40209,5.83578 -3.57039,7.12896 -1.84357,2.0406 -6.5593,3.5212 -9.6559,3.03167 z"
       id="path1" /></g></svg>
