<?xml version="1.0" encoding="UTF-8" standalone="no"?>
<!-- Created with Inkscape (http://www.inkscape.org/) -->

<svg
   width="107.51171mm"
   height="138.01332mm"
   viewBox="0 0 107.51171 138.01332"
   version="1.1"
   id="svg1"
   xml:space="preserve"
   inkscape:version="1.4 (e7c3feb1, 2024-10-09)"
   xmlns:inkscape="http://www.inkscape.org/namespaces/inkscape"
   xmlns:sodipodi="http://sodipodi.sourceforge.net/DTD/sodipodi-0.dtd"
   xmlns="http://www.w3.org/2000/svg"
   xmlns:svg="http://www.w3.org/2000/svg"><sodipodi:namedview
     id="namedview1"
     pagecolor="#ffffff"
     bordercolor="#000000"
     borderopacity="0.25"
     inkscape:showpageshadow="2"
     inkscape:pageopacity="0.0"
     inkscape:pagecheckerboard="0"
     inkscape:deskcolor="#d1d1d1"
     inkscape:document-units="mm"
     inkscape:zoom="0.89887065"
     inkscape:cx="24.475157"
     inkscape:cy="461.69046"
     inkscape:window-width="1728"
     inkscape:window-height="1387"
     inkscape:window-x="0"
     inkscape:window-y="25"
     inkscape:window-maximized="0"
     inkscape:current-layer="layer1" /><defs
     id="defs1" /><g
     inkscape:label="Layer 1"
     inkscape:groupmode="layer"
     id="layer1"
     transform="translate(-98.848866,-26.259116)"><path
       style="fill:#101d40;fill-opacity:1"
       d="m 153.20208,164.15428 c -1.4434,-0.0755 -1.78101,-0.17964 -1.88623,-0.58199 -0.11043,-0.42231 -0.51888,-0.5167 -2.95377,-0.68267 -1.55408,-0.10592 -3.62231,-0.11564 -4.59606,-0.0216 -2.52767,0.24413 -7.19241,-0.20604 -12.05682,-1.16354 -4.83332,-0.95139 -6.72473,-1.58855 -7.97541,-2.68666 -1.29099,-1.1335 -1.53726,-2.15897 -1.34739,-5.61059 0.0892,-1.62141 0.2796,-12.65161 0.42313,-24.51156 0.14353,-11.85994 0.32373,-23.19798 0.40044,-25.19564 0.13875,-3.61295 0.13633,-3.6327 -0.45933,-3.746418 -6.35299,-1.21282 -10.98477,-2.41698 -14.44396,-3.75509 -6.043,-2.3376 -8.599212,-3.40449 -9.063214,-3.78272 -0.525239,-0.42815 -0.525255,-0.43408 -0.0053,-1.88471 1.172194,-3.27034 4.845104,-14.43979 6.090314,-18.52083 4.01849,-13.1703 5.33213,-16.59703 8.28296,-21.60682 0.69973,-1.18797 1.46157,-2.61672 1.69297,-3.175 0.69549,-1.67791 2.68415,-4.481945 4.04887,-5.708943 1.86456,-1.676401 3.91136,-2.668153 9.20401,-4.459685 6.98982,-2.366013 10.01729,-3.718445 11.55402,-5.161399 1.27343,-1.195722 1.28869,-1.229287 1.13778,-2.503428 -0.14002,-1.182302 -0.0853,-1.359138 0.64785,-2.092257 0.51667,-0.516665 1.09868,-0.816437 1.64035,-0.844868 2.28495,-0.119933 3.49539,-0.142168 10.4042,-0.191119 4.0964,-0.02902 7.78734,0.02736 8.20209,0.12529 0.41474,0.09793 1.08676,0.48769 1.49336,0.866126 0.66545,0.619343 0.73365,0.844257 0.68285,2.251848 -0.0462,1.281473 0.0352,1.62819 0.45135,1.920556 0.27927,0.196226 0.81757,0.658064 1.19622,1.026307 0.8327,0.809816 3.62522,1.961859 10.85715,4.479082 3.00309,1.045291 6.13922,2.310176 6.96918,2.810857 2.37953,1.435488 4.4271,3.807648 5.86487,6.794613 0.68367,1.42031 1.45745,2.89368 1.71952,3.27416 0.74102,1.07587 3.22354,6.22119 4.1342,8.56864 1.16256,2.99678 2.09191,5.72991 6.88248,20.24062 3.21103,9.72625 4.16306,12.90918 3.93322,13.14996 -0.94796,0.99306 -16.29618,6.41277 -20.42503,7.21241 -1.39733,0.27062 -2.62078,0.5728 -2.71878,0.67152 -0.22271,0.22435 -0.10469,28.839698 0.18388,44.582778 0.11869,6.47567 0.12087,12.03562 0.005,12.35544 -0.37893,1.04435 -2.06396,2.65087 -3.36951,3.2125 -0.70312,0.30248 -5.77653,1.4478 -11.27425,2.54517 -10.22336,2.04063 -10.43937,2.06567 -15.52704,1.79965 z"
       id="path1"
       sodipodi:nodetypes="ssssssssscssscssssssssssscsssssssssssscssss" /></g></svg>
