<?xml version="1.0" encoding="UTF-8" standalone="no"?>
<!-- Created with Inkscape (http://www.inkscape.org/) -->

<svg
   width="107.43871mm"
   height="131.10522mm"
   viewBox="0 0 107.4387 131.10522"
   version="1.1"
   id="svg1"
   xml:space="preserve"
   inkscape:version="1.4 (e7c3feb1, 2024-10-09)"
   xmlns:inkscape="http://www.inkscape.org/namespaces/inkscape"
   xmlns:sodipodi="http://sodipodi.sourceforge.net/DTD/sodipodi-0.dtd"
   xmlns="http://www.w3.org/2000/svg"
   xmlns:svg="http://www.w3.org/2000/svg"><sodipodi:namedview
     id="namedview1"
     pagecolor="#ffffff"
     bordercolor="#000000"
     borderopacity="0.25"
     inkscape:showpageshadow="2"
     inkscape:pageopacity="0.0"
     inkscape:pagecheckerboard="0"
     inkscape:deskcolor="#d1d1d1"
     inkscape:document-units="mm"
     inkscape:zoom="0.89887065"
     inkscape:cx="24.475157"
     inkscape:cy="453.90291"
     inkscape:window-width="1728"
     inkscape:window-height="1387"
     inkscape:window-x="0"
     inkscape:window-y="25"
     inkscape:window-maximized="0"
     inkscape:current-layer="layer1" /><defs
     id="defs1" /><g
     inkscape:label="Layer 1"
     inkscape:groupmode="layer"
     id="layer1"
     transform="translate(-98.892649,-28.449105)"><path
       style="fill:#101d40;fill-opacity:1"
       d="m 134.03876,159.26466 c -0.72761,-0.1404 -1.91823,-0.54302 -2.64584,-0.8947 -0.7276,-0.35167 -1.97776,-0.77241 -2.77812,-0.93497 -2.99384,-0.60805 -4.24033,-1.08305 -5.18829,-1.97709 -0.89771,-0.84665 -0.94329,-0.96973 -0.80123,-2.16359 0.0829,-0.69622 0.23007,-5.55211 0.32716,-10.79086 0.14079,-7.59717 0.091,-10.59602 -0.24608,-14.81667 -0.76813,-9.61813 -1.0185,-21.6828 -0.55558,-26.77155 l 0.17291,-1.900718 -0.88934,-0.13188 c -0.48914,-0.0725 -1.96091,-0.27408 -3.27059,-0.44787 -1.30969,-0.1738 -3.39328,-0.64692 -4.63021,-1.05139 -2.23689,-0.73145 -14.248125,-5.69535 -14.608755,-6.03738 -0.23284,-0.22083 0.84009,-3.75898 1.897465,-6.25713 0.43115,-1.01865 1.39499,-3.34036 2.14186,-5.15937 0.74688,-1.81902 1.813,-4.2598 2.36917,-5.42396 0.55617,-1.16417 1.21173,-2.77151 1.45682,-3.57188 0.24508,-0.80036 1.21006,-3.41974 2.14441,-5.82083 0.93434,-2.4011 1.9508,-5.02047 2.25879,-5.82084 0.30799,-0.80036 1.1911,-2.70536 1.96246,-4.23333 0.77135,-1.52797 1.80875,-3.67109 2.30531,-4.7625 2.24117,-4.92589 5.64747,-7.814079 10.90476,-9.246105 4.80085,-1.307697 11.00294,-3.540647 11.20176,-4.032995 0.0491,-0.121568 0.60666,-0.577013 1.23904,-1.012101 0.8461,-0.582136 1.40607,-1.293977 2.12017,-2.695199 2.21937,-4.35488 2.30116,-4.388219 11.62568,-4.73871 7.19468,-0.270434 9.66546,-0.113022 10.89755,0.694274 0.66396,0.435043 1.46363,1.993356 1.7934,3.494801 0.10105,0.460072 0.79538,1.488179 1.55459,2.30191 1.2045,1.291 1.72725,1.612855 4.28239,2.63662 1.60073,0.641363 4.83138,1.779991 7.17921,2.530285 4.72641,1.510415 7.87133,3.119885 9.71884,4.9738 1.3995,1.40436 3.4253,4.72503 4.15754,6.81499 0.30556,0.87215 0.9546,2.41916 1.44231,3.43781 2.08705,4.35907 4.61275,11.61048 5.19075,14.90288 0.18225,1.03816 0.56767,2.11638 0.93526,2.61643 0.68178,0.92748 3.30205,7.6379 4.0587,10.39423 0.50971,1.85675 1.34822,4.03318 2.17078,5.63443 0.28373,0.55232 0.45473,1.16355 0.38,1.35829 -0.0747,0.19475 -0.78475,0.70553 -1.57783,1.13508 -2.71061,1.46813 -10.3695,5.03682 -12.27686,5.72045 -2.61169,0.93607 -7.44941,1.82676 -9.33513,1.71872 -1.23689,-0.0709 -1.55365,-0.009 -1.5651,0.30803 -0.008,0.21828 -0.0885,1.885158 -0.17917,3.704168 -0.11112,2.2297 -0.0164,5.03143 0.29073,8.59896 0.25056,2.91041 0.54211,7.79197 0.6479,10.84791 0.14921,4.31016 0.29898,5.85294 0.66781,6.87917 0.39322,1.09406 0.48546,2.30701 0.53322,7.01146 0.0318,3.1287 0.21461,8.33655 0.40633,11.573 l 0.34857,5.88446 -0.6438,0.68972 c -1.44669,1.54989 -2.80243,1.95807 -12.18136,3.66754 l -6.51046,1.18664 -8.63693,0.18315 c -6.65632,0.14115 -8.63693,0.11014 -8.63693,-0.13525 0,-0.24305 -1.33065,-0.28154 -5.6224,-0.16265 -3.09231,0.0857 -5.86052,0.19892 -6.15156,0.25167 -0.29104,0.0528 -1.12448,-0.019 -1.85208,-0.15936 z"
       id="path1" /></g></svg>
