<?xml version="1.0" encoding="UTF-8" standalone="no"?>
<!-- Created with Inkscape (http://www.inkscape.org/) -->

<svg
   width="92.451523mm"
   height="120.26863mm"
   viewBox="0 0 92.451512 120.26863"
   version="1.1"
   id="svg1"
   xml:space="preserve"
   inkscape:version="1.4 (e7c3feb1, 2024-10-09)"
   xmlns:inkscape="http://www.inkscape.org/namespaces/inkscape"
   xmlns:sodipodi="http://sodipodi.sourceforge.net/DTD/sodipodi-0.dtd"
   xmlns="http://www.w3.org/2000/svg"
   xmlns:svg="http://www.w3.org/2000/svg"><sodipodi:namedview
     id="namedview1"
     pagecolor="#ffffff"
     bordercolor="#000000"
     borderopacity="0.25"
     inkscape:showpageshadow="2"
     inkscape:pageopacity="0.0"
     inkscape:pagecheckerboard="0"
     inkscape:deskcolor="#d1d1d1"
     inkscape:document-units="mm"
     inkscape:zoom="0.89887065"
     inkscape:cx="-24.475157"
     inkscape:cy="443.89034"
     inkscape:window-width="1728"
     inkscape:window-height="1387"
     inkscape:window-x="0"
     inkscape:window-y="25"
     inkscape:window-maximized="0"
     inkscape:current-layer="layer1" /><defs
     id="defs1" /><g
     inkscape:label="Layer 1"
     inkscape:groupmode="layer"
     id="layer1"
     transform="translate(-111.94508,-31.081649)"><path
       style="fill:#101d40;fill-opacity:1"
       d="m 142.82376,151.18918 c -2.47179,-0.33389 -5.73261,-1.41475 -7.34643,-2.43512 -4.65987,-2.94627 -7.99433,-8.69408 -8.44913,-14.56428 -0.14387,-1.85697 -0.10124,-2.14273 0.4261,-2.856 0.32653,-0.44166 0.68503,-1.46094 0.8097,-2.30219 0.25406,-1.71429 0.61459,-7.37421 0.45788,-7.1881 -0.47329,0.56208 -2.95611,10.32308 -3.63162,14.27743 -0.49329,2.88761 -0.9934,5.05754 -1.2196,5.29167 -0.55969,0.57932 -4.94069,0.44343 -7.54997,-0.2342 -2.29838,-0.59688 -4.14276,-1.45516 -4.36357,-2.03057 -0.15629,-0.40728 1.24558,-6.40272 2.0497,-8.76607 0.25704,-0.75545 0.37216,-1.41029 0.25582,-1.45521 -0.11633,-0.0449 -0.5397,-1.68901 -0.94082,-3.65354 -1.33506,-6.53868 -1.17496,-11.81422 0.67048,-22.09271 0.41804,-2.32833 1.54414,-8.817235 2.50244,-14.419785 4.81152,-28.12969 6.82771,-36.49989 10.27823,-42.67 1.66119,-2.97047 4.33688,-4.625135 9.74702,-6.02759 6.77333,-1.755834 7.56196,-2.258819 9.4598,-6.033444 0.56734,-1.128381 1.21247,-2.201772 1.43363,-2.385313 0.32484,-0.269595 1.07903,-0.247164 3.92549,0.116753 3.99955,0.51134 9.26706,0.393729 12.65152,-0.282477 1.0914,-0.21806 2.17649,-0.396613 2.41131,-0.396785 0.64863,-4.73e-4 1.65019,1.136697 2.61986,2.974573 1.76548,3.346251 3.80524,4.50318 10.84383,6.150517 4.26623,0.998485 7.71988,3.181366 8.98774,5.680706 3.03132,5.97566 5.91774,16.942 8.84712,33.61264 0.5242,2.98318 1.54757,8.81724 2.27414,12.96459 0.72658,4.14734 1.72797,9.802805 2.22531,12.567705 1.64292,9.13349 1.69387,12.31638 0.32311,20.18458 l -0.65861,3.78042 0.60382,1.77583 c 1.00224,2.94756 2.08472,7.40056 1.90981,7.85637 -0.23639,0.61603 -2.62161,1.62182 -4.98827,2.10342 -2.04103,0.41534 -5.64003,0.54787 -6.756,0.24877 -0.71771,-0.19235 -0.85598,-0.66906 -1.7936,-6.18377 -0.43864,-2.57989 -1.05458,-5.08242 -1.66059,-6.74687 -0.52982,-1.45521 -1.34849,-3.89599 -1.81926,-5.42396 -0.47078,-1.52797 -0.86205,-2.65906 -0.86951,-2.51354 -0.0396,0.77168 2.25556,11.00714 2.67365,11.92364 0.96722,2.12027 0.34953,6.21155 -1.52765,10.11825 -1.6016,3.33319 -3.81974,5.60909 -6.97746,7.15915 -3.82655,1.87837 -4.28241,1.92187 -21.16667,2.01997 -8.22193,0.0478 -15.72287,-0.0177 -16.66875,-0.14546 z"
       id="path1" /></g></svg>
