<?xml version="1.0" encoding="UTF-8" standalone="no"?>
<!-- Created with Inkscape (http://www.inkscape.org/) -->

<svg
   width="172.95506mm"
   height="102.90208mm"
   viewBox="0 0 172.95504 102.90208"
   version="1.1"
   id="svg1"
   xml:space="preserve"
   inkscape:version="1.4 (e7c3feb1, 2024-10-09)"
   xmlns:inkscape="http://www.inkscape.org/namespaces/inkscape"
   xmlns:sodipodi="http://sodipodi.sourceforge.net/DTD/sodipodi-0.dtd"
   xmlns="http://www.w3.org/2000/svg"
   xmlns:svg="http://www.w3.org/2000/svg"><sodipodi:namedview
     id="namedview1"
     pagecolor="#ffffff"
     bordercolor="#000000"
     borderopacity="0.25"
     inkscape:showpageshadow="2"
     inkscape:pageopacity="0.0"
     inkscape:pagecheckerboard="0"
     inkscape:deskcolor="#d1d1d1"
     inkscape:document-units="mm"
     inkscape:zoom="0.89887065"
     inkscape:cx="332.63963"
     inkscape:cy="535.11593"
     inkscape:window-width="1728"
     inkscape:window-height="1387"
     inkscape:window-x="0"
     inkscape:window-y="25"
     inkscape:window-maximized="0"
     inkscape:current-layer="layer1" /><defs
     id="defs1" /><g
     inkscape:label="Layer 1"
     inkscape:groupmode="layer"
     id="layer1"
     transform="translate(-17.43897,-7.0755441)"><path
       style="fill:#101d40;fill-opacity:1"
       d="m 99.61992,109.86766 c -1.249046,-0.0985 -2.401773,-0.25997 -2.561615,-0.35876 -0.159842,-0.0988 -1.964115,-0.41239 -4.009496,-0.6969 -4.510321,-0.62739 -7.827127,-1.68132 -11.259508,-3.57777 -3.100502,-1.71309 -4.734754,-3.02305 -5.730782,-4.59363 -0.924222,-1.457341 -0.929126,-1.762951 -0.09442,-5.884261 0.863733,-4.26462 1.501835,-6.21985 2.926146,-8.96607 2.286395,-4.40843 3.270822,-7.6189 3.691373,-12.03855 0.09693,-1.01864 0.580687,-3.81661 1.075018,-6.2177 0.641357,-3.11524 0.899539,-5.0701 0.901424,-6.82522 0.0039,-3.65692 -1.610121,-13.71299 -3.204297,-19.96385 -0.432405,-1.69548 -1.58467,-1.20579 -5.146071,2.18697 -1.341604,1.27808 -2.668636,2.39658 -2.948958,2.48555 -0.290706,0.0923 -0.842598,0.871 -1.284584,1.81259 -0.672976,1.43368 -1.818997,2.69591 -8.712407,9.59586 -4.365625,4.36977 -9.183256,8.95367 -10.705846,10.18646 -1.52259,1.23278 -3.189465,2.66192 -3.704167,3.17585 -0.878302,0.87699 -4.507696,5.88208 -4.507696,6.21631 0,0.0843 -0.715613,0.81577 -1.590251,1.62553 -0.874638,0.80976 -1.661452,1.75597 -1.748475,2.1027 -0.08702,0.34673 -0.278926,0.63041 -0.426452,0.63041 -0.416373,0 -4.671542,4.25148 -5.29532,5.29073 -0.742482,1.23701 -0.728056,1.22446 -0.965546,0.84019 -0.38573,-0.62412 -3.203123,3.39921 -3.203123,4.57417 0,0.88515 -2.426047,0.12697 -7.14375,-2.23255 -4.677414,-2.33937 -7.065311,-4.33902 -6.431609,-5.38589 0.519821,-0.85874 4.981816,-5.73248 5.248186,-5.73248 0.16966,0 1.309008,-1.10459 2.531885,-2.45463 1.222877,-1.35005 2.849493,-2.96383 3.614702,-3.58619 0.765209,-0.62235 1.849842,-1.75019 2.410295,-2.50631 1.01721,-1.37232 6.885888,-7.84081 10.453203,-11.52156 1.036638,-1.06961 3.178017,-2.81531 4.75862,-3.87934 l 2.873823,-1.9346 1.144898,-2.69428 c 0.629694,-1.48185 1.598662,-3.26548 2.153261,-3.96361 0.554599,-0.69814 2.146364,-2.6811 3.537256,-4.4066 1.390892,-1.72549 3.909092,-4.86366 5.596,-6.97371 1.686908,-2.11006 4.299374,-5.19677 5.805481,-6.85938 1.506106,-1.6626 3.343589,-3.7462 4.083294,-4.63021 0.739706,-0.88401 2.122585,-2.33229 3.073066,-3.2184 1.481345,-1.38103 2.10167,-1.74775 4.343622,-2.56789 1.438512,-0.52623 3.746571,-1.26755 5.129019,-1.64739 1.382448,-0.37983 2.757686,-0.78849 3.056086,-0.90812 0.310208,-0.12437 1.095389,-1.25853 1.833527,-2.64845 0.742134,-1.39744 1.6814,-2.7527403 2.209308,-3.1878903 1.635668,-1.34825 2.644149,-1.45207 14.10612,-1.45207 11.96996,0 11.31102,-0.12971 11.87187,2.33698 0.17097,0.7519603 0.50032,1.9936503 0.73189,2.7593303 0.3912,1.29352 0.49719,1.41165 1.49622,1.66768 6.17647,1.58286 11.34359,3.59379 13.07682,5.0892 0.67514,0.58252 1.88238,1.79705 2.68275,2.69896 0.80036,0.90191 2.47734,2.75914 3.72662,4.12718 1.24927,1.36804 3.98771,4.56918 6.08541,7.11366 2.09771,2.54447 5.13198,6.20855 6.74283,8.1424 2.43714,2.9258 3.23667,4.12591 4.76251,7.14864 l 1.83367,3.63257 2.75075,1.85108 c 2.77417,1.86683 3.01533,2.10372 9.29166,9.12712 1.49549,1.67348 4.46945,4.82864 6.60881,7.01145 2.13936,2.18282 4.69583,4.92125 5.68105,6.08542 0.98521,1.16417 1.99903,2.1762 2.25293,2.24896 0.596,0.1708 5.29709,5.72763 5.29709,6.26132 0,0.47345 -1.21219,1.65712 -2.85351,2.78638 -1.29134,0.88846 -8.51771,4.30224 -9.64364,4.5557 -0.67835,0.1527 -0.77051,0.0584 -1.48665,-1.521 -0.49017,-1.08105 -1.10646,-1.9454 -1.72163,-2.41462 -0.55034,-0.41976 -0.88134,-0.85906 -0.77766,-1.03211 0.10985,-0.18336 0.0196,-0.17103 -0.23063,0.0315 -0.34936,0.2828 -0.52245,0.16354 -1.15208,-0.79375 -0.97836,-1.48752 -4.34971,-4.96301 -4.81429,-4.96301 -0.20111,0 -0.52874,-0.39032 -0.72807,-0.86736 -0.19932,-0.47705 -1.05645,-1.53685 -1.90472,-2.35511 -0.84828,-0.81827 -1.80222,-1.88647 -2.11986,-2.37379 -2.88885,-4.43204 -3.42488,-5.07194 -6.14015,-7.32999 -1.54403,-1.28402 -5.31258,-4.7052 -8.37457,-7.60261 -3.06199,-2.89741 -6.9594,-6.56412 -8.66091,-8.14824 -2.63585,-2.45399 -3.215,-3.14346 -3.9136,-4.65909 -0.69249,-1.50237 -1.31284,-2.24733 -3.99108,-4.7927 -3.11539,-2.96083 -4.30621,-3.87117 -4.54834,-3.47705 -0.0671,0.10926 -0.55642,1.62739 -1.08732,3.37364 -1.54725,5.08918 -1.74612,7.0351 -1.7344,16.97121 0.01,8.22078 0.13502,10.40182 0.97084,16.89546 0.18846,1.46412 1.6932,5.46404 3.28987,8.74513 1.18027,2.42542 2.20927,6.20185 2.48345,9.11424 0.10275,1.09141 0.35142,2.24389 0.55261,2.56107 0.61789,0.97412 0.7471,2.55982 0.27854,3.418291 -0.63747,1.16793 -1.15074,1.68741 -3.78909,3.8349 -2.8151,2.29136 -5.74595,3.8343 -8.24462,4.34037 -4.5604,0.92365 -15.6388,1.56968 -20.432613,1.19152 z"
       id="path1" /></g></svg>
